<?xml version="1.0" encoding="UTF-8"?>
<svg version="1.1" xmlns="http://www.w3.org/2000/svg" width="96" height="96">
<path d="M0 0 C6.85551345 -0.76275726 11.09067913 1.75013814 16.9375 5.125 C17.88898926 5.65907471 18.84047852 6.19314941 19.82080078 6.7434082 C22.89204247 8.47626935 25.94781733 10.23380363 29 12 C30.02593262 12.59312988 31.05186523 13.18625977 32.10888672 13.79736328 C37.20771964 16.75277862 42.29495405 19.72727002 47.375 22.71484375 C52.98803502 26.00849796 58.65043215 29.20786506 64.35693359 32.33666992 C66.87336645 33.72931558 68.95418452 34.95418452 71 37 C71.6875 39.75 71.6875 39.75 71 43 C64.95486411 48.20389162 57.20179674 51.7923077 50.25 55.625 C48.03601948 56.85467894 45.82248538 58.08516197 43.609375 59.31640625 C41.95325195 60.23703857 41.95325195 60.23703857 40.26367188 61.17626953 C34.48022252 64.40804442 28.73434069 67.70504997 22.98925781 71.00439453 C21.42518308 71.90184059 19.85972951 72.79688906 18.29272461 73.68920898 C16.70721544 74.59567248 15.1276352 75.51255675 13.55297852 76.43774414 C12.76334717 76.8939917 11.97371582 77.35023926 11.16015625 77.8203125 C10.45769775 78.23168457 9.75523926 78.64305664 9.03149414 79.06689453 C5.87262268 80.51782672 3.41916399 80.36374085 0 80 C-1.47545406 77.04909188 -1.13874367 74.06264796 -1.12939453 70.828125 C-1.13114685 70.08977417 -1.13289917 69.35142334 -1.13470459 68.59069824 C-1.13911512 66.1437751 -1.13618792 63.69692391 -1.1328125 61.25 C-1.13348577 59.5537108 -1.13445599 57.85742169 -1.13571167 56.16113281 C-1.13718756 52.60350629 -1.13503757 49.04590486 -1.13037109 45.48828125 C-1.12467387 40.92154952 -1.12795345 36.35487655 -1.13394356 31.78814697 C-1.1375521 28.28466344 -1.13640923 24.78119391 -1.13381577 21.27770996 C-1.13314731 19.59354648 -1.13397209 17.90938174 -1.13629532 16.22521973 C-1.13882662 13.87407043 -1.13497447 11.52301713 -1.12939453 9.171875 C-1.13141876 8.47155151 -1.13344299 7.77122803 -1.13552856 7.04968262 C-1.11426458 2.22852915 -1.11426458 2.22852915 0 0 Z " fill="#3DCAF3" transform="translate(15,8)"/>
<path d="M0 0 C3.32781029 1.19058883 6.20587678 2.96287483 9.16261292 4.86315918 C9.75171448 5.23183105 10.34081604 5.60050293 10.94776917 5.98034668 C16.29256515 9.34695381 16.29256515 9.34695381 17.03761292 12.55065918 C16.41261292 15.86315918 16.41261292 15.86315918 14.7959137 17.26623535 C8.5414668 21.23929562 2.15096013 24.91097772 -4.33738708 28.48815918 C-6.55136761 29.71783812 -8.7649017 30.94832115 -10.97801208 32.17956543 C-12.63413513 33.10019775 -12.63413513 33.10019775 -14.32371521 34.03942871 C-20.10716457 37.2712036 -25.8530464 40.56820915 -31.59812927 43.86755371 C-33.162204 44.76499977 -34.72765758 45.66004824 -36.29466248 46.55236816 C-37.88017164 47.45883166 -39.45975188 48.37571593 -41.03440857 49.30090332 C-41.82403992 49.75715088 -42.61367126 50.21339844 -43.42723083 50.68347168 C-44.12968933 51.09484375 -44.83214783 51.50621582 -45.55589294 51.93005371 C-48.7147644 53.3809859 -51.1682231 53.22690003 -54.58738708 52.86315918 C-49.40954185 46.62409012 -43.80738884 40.84986704 -38.11473083 35.08190918 C-37.61897615 34.57958267 -37.12322147 34.07725616 -36.61244392 33.55970764 C-33.99708185 30.91200667 -31.3778269 28.26821695 -28.75608826 25.62683105 C-26.59189364 23.44470316 -24.43657255 21.25433586 -22.28831482 19.05651855 C-19.68157728 16.38975468 -17.06056414 13.73786164 -14.42851448 11.09608459 C-13.43101914 10.0900236 -12.43867191 9.078831 -11.45165825 8.06248474 C-10.0760619 6.64816878 -8.67969508 5.25414409 -7.28245544 3.86120605 C-6.10047829 2.6637677 -6.10047829 2.6637677 -4.8946228 1.44213867 C-2.58738708 -0.13684082 -2.58738708 -0.13684082 0 0 Z " fill="#C9394B" transform="translate(69.58738708496094,35.1368408203125)"/>
<path d="M0 0 C6.32890221 -0.85077046 10.57905872 2.09632166 15.875 5.125 C16.81939941 5.65254883 17.76379883 6.18009766 18.73681641 6.72363281 C29.90975558 12.99892041 40.96576583 19.48465815 52 26 C47.86297048 30.89866198 43.57913473 35.51244797 39 40 C33.87196244 35.70321115 29.04986192 31.20989567 24.31640625 26.484375 C23.61603745 25.78733459 22.91566864 25.09029419 22.19407654 24.37213135 C20.72809617 22.91117921 19.2634364 21.44890082 17.80004883 19.98535156 C15.54983333 17.73734576 13.29171009 15.49748431 11.03320312 13.2578125 C9.60628278 11.83382222 8.1798332 10.40936002 6.75390625 8.984375 C6.07590469 8.31355896 5.39790314 7.64274292 4.69935608 6.95159912 C4.08128586 6.33045227 3.46321564 5.70930542 2.82641602 5.06933594 C2.27905289 4.52339783 1.73168976 3.97745972 1.16773987 3.41497803 C0 2 0 2 0 0 Z " fill="#5FE1A5" transform="translate(16,8)"/>
<path d="M0 0 C3.34389727 1.34258732 6.32769702 3.10205113 9.34765625 5.04296875 C9.93675781 5.41164063 10.52585937 5.7803125 11.1328125 6.16015625 C16.47760849 9.52676338 16.47760849 9.52676338 17.22265625 12.73046875 C16.59765625 16.04296875 16.59765625 16.04296875 14.8359375 17.6328125 C12.47347639 19.20912356 10.06634489 20.63959002 7.59765625 22.04296875 C6.9325 22.47222656 6.26734375 22.90148437 5.58203125 23.34375 C1.28302212 26.06334056 1.28302212 26.06334056 -1.2421875 25.98828125 C-4.52830679 24.55023266 -6.7195655 22.03775927 -9.15234375 19.48046875 C-9.65894531 18.96033203 -10.16554688 18.44019531 -10.6875 17.90429688 C-11.9326878 16.62386791 -13.16845877 15.33429321 -14.40234375 14.04296875 C-12.81358036 10.25301362 -10.42844828 7.67121198 -7.58984375 4.73046875 C-6.73777344 3.82683594 -5.88570312 2.92320313 -5.0078125 1.9921875 C-2.40234375 0.04296875 -2.40234375 0.04296875 0 0 Z " fill="#FECB12" transform="translate(69.40234375,34.95703125)"/>
</svg>
